<svg id="Capa_1" data-name="Capa 1" xmlns="http://www.w3.org/2000/svg" viewBox="0 0 251.2 251.2"><defs><style>.cls-1{fill:#036db6;}.cls-2{fill:#189ed8;}.cls-3{fill:#199ed8;}</style></defs><title>Mesa de trabajo 2 copia</title><path class="cls-1" d="M237.07,0c-1.57,18.41-3.07,36.37-4.62,54.32q-3.54,41-7.14,81.89c-2.52,28.91-5,57.83-7.68,86.73a5.62,5.62,0,0,1-3.31,3.86q-43.12,12.28-86.39,24.13a12.54,12.54,0,0,1-6.27-.34c-27.77-7.7-55.49-15.58-83.28-23.22-3.49-1-4.84-2.36-5.14-6.09-2.63-32.16-5.5-64.3-8.31-96.44Q19.76,65.57,14.57,6.31c-.17-2-.28-3.93-.44-6.31ZM125.77,174c-9.72-2.49-19.47-4.85-29.1-7.64-1.13-.33-2-3-2.22-4.71-.66-5.81-.94-11.66-1.36-17.28H64.36c1.09,13,2.2,25.55,3.14,38.09.25,3.38,1.72,4.85,5,5.73,17.72,4.71,35.37,9.7,53,14.6V232l18.36-4.93c16.48-4.45,33-8.81,49.4-13.46,1.85-.52,4.51-2.52,4.68-4.06,1.76-16.58,3.12-33.2,4.55-49.82.83-9.65,1.52-19.31,2.39-29,1.32-14.64,2.76-29.27,4.1-43.9q1.35-14.73,2.59-29.48c1-11.25,1.88-22.51,2.86-33.76.28-3.12-.67-4.56-4.14-4.55q-40.29.16-80.6,0c-3.54,0-4.18,1.57-4.13,4.6.13,7.39,0,14.78,0,22.18H55.76c.88,10,1.68,19.07,2.52,28.69h53.58a22.57,22.57,0,0,1-6.1,4C91.92,85.53,78,92.39,64.26,99.44c-1.47.75-3.4,2.7-3.33,4,.46,8.92,1.41,17.82,2.26,27.4h62.53Q125.74,152.4,125.77,174Z"/><path class="cls-2" d="M125.58,202.76c17.36-4.82,34.67-9.8,52.1-14.34,4.22-1.1,5.8-3,6.13-7.2,1.79-22.64,3.82-45.26,5.77-67.89.29-3.37.54-6.74.86-10.71H139c-.09-.34-.19-.68-.28-1,1.8-1,3.57-2.07,5.42-3,14.66-7.35,29.28-14.8,44.07-21.89,3.58-1.72,5.15-3.95,5.38-7.74.44-7.33,1.09-14.66,1.73-23.08H125.68c0-7.4.09-14.79,0-22.18,0-3,.59-4.61,4.13-4.6q40.3.16,80.6,0c3.47,0,4.42,1.43,4.14,4.55-1,11.25-1.89,22.51-2.86,33.76q-1.26,14.74-2.59,29.48c-1.34,14.63-2.78,29.26-4.1,43.9-.87,9.65-1.56,19.31-2.39,29-1.43,16.62-2.79,33.24-4.55,49.82-.17,1.54-2.83,3.54-4.68,4.06-16.42,4.65-32.92,9-49.4,13.46L125.58,232Z"/><path class="cls-3" d="M125.72,130.84h33.11c-.72,11.13-1.34,21.84-2.19,32.52a4.24,4.24,0,0,1-2.32,3.1c-9.48,2.65-19,5-28.55,7.51Q125.74,152.4,125.72,130.84Z"/></svg>