<svg id="Capa_1" data-name="Capa 1" xmlns="http://www.w3.org/2000/svg" viewBox="0 0 149.8 168.79"><defs><style>.cls-1{fill:#036db6;}.cls-2{fill:#189ed8;}.cls-3{fill:#199ed8;}</style></defs><title>css</title><path class="cls-1" d="M149.8,0c-1.05,12.37-2.06,24.44-3.1,36.5q-2.38,27.51-4.8,55c-1.69,19.43-3.35,38.86-5.16,58.28a3.75,3.75,0,0,1-2.22,2.59q-29,8.27-58.05,16.22a8.44,8.44,0,0,1-4.22-.23C53.59,163.2,35,157.91,16.3,152.78c-2.35-.64-3.26-1.59-3.46-4.09-1.77-21.61-3.69-43.21-5.58-64.81Q3.78,44.07.3,4.24C.18,2.92.11,1.6,0,0ZM75,116.89c-6.52-1.67-13.08-3.25-19.55-5.13-.76-.22-1.36-2-1.49-3.16-.44-3.9-.63-7.84-.91-11.61H33.75c.73,8.74,1.48,17.16,2.11,25.59.17,2.27,1.16,3.26,3.39,3.85C51.16,129.6,63,133,74.89,136.24v19.67l12.34-3.32c11.07-3,22.15-5.91,33.19-9,1.24-.35,3-1.69,3.14-2.73,1.19-11.14,2.1-22.31,3.06-33.47.56-6.49,1-13,1.61-19.46.88-9.84,1.85-19.67,2.75-29.5q.92-9.9,1.74-19.8c.65-7.57,1.26-15.13,1.93-22.69.18-2.1-.45-3.07-2.79-3.06q-27.08.11-54.15,0c-2.38,0-2.82,1.05-2.78,3.09.09,5,0,9.93,0,14.9H28c.59,6.74,1.12,12.82,1.69,19.28h36a15.45,15.45,0,0,1-4.1,2.72c-9.3,4.64-18.63,9.25-27.89,14-1,.51-2.28,1.82-2.24,2.69.32,6,.95,12,1.52,18.41H75Z"/><path class="cls-2" d="M74.89,136.24c11.66-3.24,23.29-6.59,35-9.63,2.83-.74,3.89-2,4.12-4.84,1.2-15.21,2.56-30.41,3.87-45.62.19-2.26.36-4.53.58-7.19H83.9l-.19-.7c1.21-.67,2.4-1.39,3.64-2C97.21,61.32,107,56.31,117,51.54a5.54,5.54,0,0,0,3.61-5.19c.3-4.93.73-9.86,1.16-15.52H75c0-5,.06-9.93,0-14.9,0-2,.4-3.1,2.78-3.09q27.08.12,54.15,0c2.34,0,3,1,2.79,3.06-.67,7.56-1.28,15.12-1.93,22.69q-.84,9.9-1.74,19.8c-.9,9.83-1.87,19.66-2.75,29.5-.59,6.48-1,13-1.61,19.46-1,11.16-1.87,22.33-3.06,33.47-.11,1-1.9,2.38-3.14,2.73-11,3.13-22.12,6.06-33.19,9l-12.34,3.32Z"/><path class="cls-3" d="M75,87.91H97.23c-.48,7.49-.9,14.68-1.47,21.86a2.86,2.86,0,0,1-1.56,2.08c-6.37,1.78-12.79,3.39-19.19,5Z"/></svg>