<svg id="Capa_1" data-name="Capa 1" xmlns="http://www.w3.org/2000/svg" viewBox="0 0 111.57 167.33"><defs><style>.cls-1{fill:#f14e1e;}.cls-2{fill:#a159fe;}.cls-3{fill:#fe7262;}.cls-4{fill:#0ace82;}.cls-5{fill:#1abbfd;}.cls-6{fill:#bb4c38;}.cls-7{fill:#502e80;}.cls-8{fill:#97407a;}.cls-9{fill:#6c51b7;}.cls-10{fill:#3b65b1;}.cls-11{fill:#307596;}.cls-12{fill:#542722;}</style></defs><title>figma</title><path class="cls-1" d="M25.57,0H55.75V55.3c0,.16,0,.31,0,.47,0,0,0,0,0,0l-.54,0H26.76c-1.35-.16-2.71-.27-4.05-.48a24.7,24.7,0,0,1-6.37-2,28.09,28.09,0,0,1-6.31-4A28.61,28.61,0,0,1,5.88,45a27.53,27.53,0,0,1-4.36-8A26.85,26.85,0,0,1,.12,30.4c0-.1-.08-.19-.12-.28V25.57a1.12,1.12,0,0,0,.13-.24c.19-1.23.3-2.47.57-3.68a27,27,0,0,1,2.59-6.9A26.21,26.21,0,0,1,7.76,8.62a34.92,34.92,0,0,1,3.06-2.77,25.71,25.71,0,0,1,5.45-3.32A28.46,28.46,0,0,1,20.91.88,27.84,27.84,0,0,1,25.35.12C25.42.11,25.49,0,25.57,0Z"/><path class="cls-2" d="M55.72,55.78s0,0,0,0h.06c0,.11,0,.22,0,.33V81.44l0,1.16v2.13l0,1.16V111.1c0,.15,0,.31,0,.46h0c-.15,0-.3,0-.46,0H26.83c-.47,0-.95,0-1.43-.08a26.69,26.69,0,0,1-6.54-1.4,27.69,27.69,0,0,1-15.4-13,26.93,26.93,0,0,1-3-8.34c-.16-.84-.23-1.69-.35-2.53,0-.08-.09-.14-.13-.21V81.32a1.2,1.2,0,0,0,.13-.21C.29,80.08.4,79,.6,78A26.78,26.78,0,0,1,4,69.31a27.17,27.17,0,0,1,5-6.14,27.64,27.64,0,0,1,10.53-6.11,26.78,26.78,0,0,1,7.27-1.25H55.32C55.45,55.82,55.58,55.79,55.72,55.78Z"/><path class="cls-3" d="M111.57,25.7v4.22s-.09,0-.09,0a1.29,1.29,0,0,0,0,.19c-.12,1-.18,2-.36,2.94a27.13,27.13,0,0,1-7,13.82A27.43,27.43,0,0,1,85.8,55.69c-.27,0-.53.08-.8.12h-.39a.88.88,0,0,0-.27-.06h-2l-1.11,0H55.82V0H86l0,0,0,0c.26.05.52.11.78.15.94.14,1.89.21,2.81.43a27.62,27.62,0,0,1,20.06,17.05,25.32,25.32,0,0,1,1.83,7.77A.82.82,0,0,0,111.57,25.7Z"/><path class="cls-4" d="M55.76,111.55h0c0,.13,0,.26,0,.4q0,13.55,0,27.1a27.94,27.94,0,0,1-23.22,27.87c-.66.12-1.33.18-2,.27-.07,0-.13.08-.19.13H25.57c-.09,0-.17-.12-.26-.12A25.24,25.24,0,0,1,19.53,166a27.67,27.67,0,0,1-18-17.56,25.77,25.77,0,0,1-1.39-6.33c0-.09-.08-.17-.13-.26V137c0-.07.12-.13.13-.2.15-1,.24-2,.44-2.92a28,28,0,0,1,26.27-22.32H55.46Z"/><path class="cls-5" d="M84.61,55.82H85c.46,0,.93,0,1.39.09a25.66,25.66,0,0,1,5.76,1.2q15.07,5.26,18.8,20.81c.26,1.07.34,2.2.5,3.3a1.87,1.87,0,0,0,.12.25V85.6c0,.06-.12.1-.12.16-1.09,11.1-6.82,18.89-16.87,23.57A23.43,23.43,0,0,1,89.15,111,27.92,27.92,0,0,1,56.66,90.56c-.32-1.21-.48-2.46-.69-3.7-.06-.36-.07-.73-.1-1.09l-.06-1V82.59l.06-1a9.63,9.63,0,0,1,.1-1.08,40,40,0,0,1,.81-4.12A27.61,27.61,0,0,1,73.59,57.66a27,27,0,0,1,7.83-1.8l.9,0Z"/><path class="cls-6" d="M55.82,0V55.76h-.08c0-.16,0-.31,0-.47V0Z"/><path class="cls-7" d="M55.81,84.74l.06,1a.83.83,0,0,0-.08.12l0-1.16Z"/><path class="cls-8" d="M26.8,55.81l0-.05H55.18l.54,0c-.14,0-.27,0-.4,0H26.8Z"/><path class="cls-9" d="M26.84,111.57a.07.07,0,0,0,0,0H55.3c.16,0,.31,0,.46,0l-.3,0H26.84Z"/><path class="cls-10" d="M55.81,84.74h-.05V82.6h.05Z"/><path class="cls-7" d="M55.81,82.59h-.05l0-1.16a.44.44,0,0,0,.08.11Z"/><path class="cls-11" d="M84.61,55.82H82.32l0-.05h2A.88.88,0,0,1,84.61,55.82Z"/><path class="cls-12" d="M82.36,55.76l0,.05-.9,0-.17-.08Z"/></svg>