<svg id="Capa_1" data-name="Capa 1" xmlns="http://www.w3.org/2000/svg" viewBox="0 0 163.22 163.22"><defs><style>.cls-1{fill:#ee4f33;}</style></defs><title>git</title><path class="cls-1" d="M0,85.23V77.56a.93.93,0,0,0,.11.19.58.58,0,0,0,.12.1A45.61,45.61,0,0,1,3.82,73.2Q27,49.88,50.34,26.63c.49-.49,1-1,1.49-1.41.22.1.38.12.47.22,5.79,5.76,11.59,11.5,17.31,17.33A2.78,2.78,0,0,1,70,45c-1.38,5.74.71,11.24,5.67,14.13a2.77,2.77,0,0,1,1.6,2.81q-.08,20.35,0,40.69A3.28,3.28,0,0,1,75.38,106,12.17,12.17,0,0,0,70,119.78a12.47,12.47,0,0,0,23.8.49,12.16,12.16,0,0,0-4.8-14,3.19,3.19,0,0,1-1.56-3.11q.06-19.92,0-39.84V60.79c.88.82,1.4,1.27,1.88,1.75,4.47,4.46,8.9,9,13.43,13.38a3.37,3.37,0,0,1,1.12,3.81c-2,7.66,4.5,15.56,12.33,15.2a12.57,12.57,0,0,0,12.07-14.09,12.36,12.36,0,0,0-14.81-10.52,3,3,0,0,1-3.12-1Q102.73,61.56,95,53.93a2.75,2.75,0,0,1-.9-2.93c1.56-7.78-4.2-15.39-12-14.76-4.19.34-6.27-1.44-8.68-3.92C69.25,28,64.93,23.77,60.67,19.5c-.49-.5-1-1-1.59-1.69C62.93,14,66.63,10.18,70.49,6.53c2.24-2.12,4.75-4,7.12-6,.08-.07,0-.37,0-.56h7.67a1.77,1.77,0,0,0-.17.12A.38.38,0,0,0,85,.25a53.21,53.21,0,0,1,5.15,4q34.5,34.39,68.9,68.9a46.37,46.37,0,0,1,3.34,4.35c.19.24.57.33.86.49v7.24a1.49,1.49,0,0,0-.29-.2s-.11.08-.16.13c-2.28,2.77-4.36,5.73-6.88,8.26q-32.13,32.3-64.42,64.43a68.69,68.69,0,0,1-6.13,4.81c-.11.09-.07.37-.11.56H78l.19-.1a1.31,1.31,0,0,0,.11-.12,37.51,37.51,0,0,1-4-3c-3.6-3.43-7.09-7-10.6-10.46Q34.31,120.23,5,90.87A64.26,64.26,0,0,1,.69,85.41C.57,85.27.23,85.29,0,85.23Z"/></svg>