<svg id="Capa_1" data-name="Capa 1" xmlns="http://www.w3.org/2000/svg" viewBox="0 0 149.8 168.87"><defs><style>.cls-1{fill:#e5c733;}.cls-2{fill:#fcdb27;}</style></defs><title>js</title><path class="cls-1" d="M75,.07c23.44,0,46.89.06,70.34-.07,3.4,0,4.72.69,4.36,4.4-1.76,18.11-3.34,36.24-4.92,54.36C143.5,73.86,142.26,89,141,104.08s-2.58,30.46-3.74,45.7c-.2,2.58-1.77,3.15-3.72,3.69L95.34,164.18a27.21,27.21,0,0,0-4.88,1.44c-13,6.57-25.4,1.73-37.91-1.89q-17.65-5.11-35.41-9.84c-3.12-.83-4.38-2.14-4.67-5.63C10.08,119,7.35,89.79,4.81,60.54,3.19,41.81,1.86,23.05.06,4.34-.32.37,1,0,4.33,0c19.8.12,39.61.06,59.41.06ZM74.63,84.8c0,22.6,0,45.19,0,67.79,0,3.14.74,4.11,4,3.18,13.49-3.82,27-7.63,40.61-11,3.93-1,4.93-2.87,5.08-6.49.3-7.11.92-14.22,1.53-21.32.87-10.1,1.86-20.18,2.78-30.28.56-6.25,1-12.51,1.61-18.77.9-9.85,1.85-19.69,2.76-29.54.65-7,1.12-14,1.95-20.91.45-3.79.37-4.2-3.54-4.2-17.37,0-34.74.09-52.11-.09-3.57,0-4.77.71-4.73,4.57C74.74,40.09,74.63,62.45,74.63,84.8Zm-5.69,52V74.16c0-12.75-.17-25.5.1-38.25C69.12,32,67.87,31,64.3,31.39a36.13,36.13,0,0,1-7.64,0c-3.27-.35-4.07.88-4.06,4.06.13,24.9.08,49.79.08,74.69v4.92l-29-7.79c0,5.07.1,9.66-.05,14.24-.08,2.26.78,3.21,2.91,3.76,6.11,1.56,12.16,3.36,18.24,5C52.56,132.4,60.38,134.48,68.94,136.77Z"/><path class="cls-2" d="M74.63,84.8c0-22.35.11-44.71-.09-67.06,0-3.86,1.16-4.6,4.73-4.57,17.37.18,34.74.08,52.11.09,3.91,0,4,.41,3.54,4.2-.83,7-1.3,13.94-1.95,20.91-.91,9.85-1.86,19.69-2.76,29.54-.57,6.26-1.05,12.52-1.61,18.77-.92,10.1-1.91,20.18-2.78,30.28-.61,7.1-1.23,14.21-1.53,21.32-.15,3.62-1.15,5.51-5.08,6.49-13.61,3.37-27.12,7.18-40.61,11-3.27.93-4,0-4-3.18C74.67,130,74.63,107.4,74.63,84.8Zm53-52.93a11,11,0,0,0-1.79-.39c-14.22,0-28.44,0-42.66-.07-2.45,0-2.71,1.21-2.7,3.18,0,19.32,0,38.65,0,58a20.83,20.83,0,0,0,.44,3l26.44-4c-.75,6.66-1.51,12.52-2,18.4-.18,2-.83,3-2.84,3.51-6.46,1.68-12.87,3.53-19.27,5.43-1,.3-2.55,1.23-2.58,1.91-.22,5.14-.12,10.29-.12,15.41a7.23,7.23,0,0,0,1.7.12c11.47-3.13,22.92-6.31,34.39-9.42,2.22-.6,3-1.84,3.17-4.14,1.27-14.75,2.74-29.48,4.1-44.22.16-1.76,0-3.55,0-5.85L97.18,76.59c0-8.53.15-16.53-.07-24.52-.1-3.37,1-4.52,4.35-4.44,7.29.17,14.59,0,21.88.08,2.08,0,3.08-.59,3.2-2.85C126.76,40.64,127.25,36.42,127.66,31.87Z"/></svg>