<svg id="Capa_1" data-name="Capa 1" xmlns="http://www.w3.org/2000/svg" viewBox="0 0 251.2 251.2"><defs><style>.cls-1{fill:#e5c733;}.cls-2{fill:#fcdb27;}</style></defs><title>Mesa de trabajo 2 copia 3</title><path class="cls-1" d="M125.8.1C160.39.1,195,.19,229.57,0c5,0,7,1,6.44,6.5-2.61,26.71-4.93,53.45-7.27,80.18-2,22.28-3.78,44.57-5.64,66.86-1.88,22.47-3.82,44.93-5.53,67.41-.29,3.81-2.6,4.65-5.48,5.46q-28.17,7.86-56.34,15.79c-2.41.68-5,1-7.2,2.12-19.2,9.69-37.47,2.56-55.92-2.78Q66.59,234,40.39,227c-4.6-1.23-6.46-3.16-6.88-8.31C30,175.57,26,132.45,22.21,89.31c-2.4-27.63-4.37-55.3-7-82.91C14.64.55,16.62,0,21.49,0,50.71.19,79.92.1,109.13.1Zm-.59,125c0,33.33.05,66.67-.07,100,0,4.63,1.1,6.06,5.92,4.7,19.9-5.64,39.82-11.26,59.9-16.24,5.81-1.44,7.27-4.23,7.5-9.57.44-10.49,1.35-21,2.25-31.45,1.28-14.9,2.76-29.78,4.1-44.67.84-9.22,1.54-18.46,2.38-27.68,1.33-14.54,2.73-29.06,4.08-43.59.95-10.28,1.65-20.59,2.87-30.84.66-5.6.55-6.2-5.22-6.2-25.62,0-51.25.13-76.88-.12-5.25-.06-7,1-7,6.73C125.36,59.14,125.21,92.12,125.21,125.1Zm-8.41,76.66V109.4c0-18.81-.25-37.62.15-56.42.12-5.71-1.72-7.24-7-6.68a52.33,52.33,0,0,1-11.26,0c-4.83-.51-6,1.3-6,6,.19,36.72.1,73.45.1,110.18v7.26L50,158.25c0,7.47.16,14.24-.07,21-.11,3.33,1.16,4.74,4.3,5.55,9,2.31,17.93,4.95,26.91,7.39C92.63,195.32,104.18,198.38,116.8,201.76Z"/><path class="cls-2" d="M125.21,125.1c0-33,.15-66-.15-98.93,0-5.69,1.73-6.79,7-6.73,25.63.25,51.26.1,76.88.12,5.77,0,5.88.6,5.22,6.2-1.22,10.25-1.92,20.56-2.87,30.84-1.35,14.53-2.75,29.05-4.08,43.59-.84,9.22-1.54,18.46-2.38,27.68-1.34,14.89-2.82,29.77-4.1,44.67-.9,10.47-1.81,21-2.25,31.45-.23,5.34-1.69,8.13-7.5,9.57-20.08,5-40,10.6-59.9,16.24-4.82,1.36-5.94-.07-5.92-4.7C125.26,191.77,125.21,158.43,125.21,125.1ZM203.43,47a15.28,15.28,0,0,0-2.64-.58c-21,0-41.95,0-62.93-.11-3.62,0-4,1.79-4,4.69.06,28.51,0,57,.07,85.53a31.39,31.39,0,0,0,.65,4.43l39-5.86c-1.11,9.84-2.22,18.48-3,27.15-.26,2.95-1.23,4.4-4.19,5.18-9.52,2.49-19,5.2-28.42,8-1.48.44-3.77,1.8-3.81,2.82-.32,7.57-.18,15.17-.18,22.72a10.8,10.8,0,0,0,2.51.18c16.91-4.62,33.81-9.32,50.74-13.9,3.27-.89,4.37-2.71,4.66-6.1,1.88-21.76,4-43.49,6.06-65.23.24-2.6,0-5.24,0-8.63L158.46,113c0-12.59.22-24.39-.1-36.17-.14-5,1.51-6.67,6.42-6.55,10.75.25,21.52,0,32.27.11,3.07,0,4.55-.87,4.73-4.2C202.1,60,202.83,53.73,203.43,47Z"/></svg>