<svg id="Capa_1" data-name="Capa 1" xmlns="http://www.w3.org/2000/svg" viewBox="0 0 183.72 163.45"><defs><style>.cls-1{fill:#60d9fa;}.cls-2{fill:#61d9fa;}</style></defs><title>react</title><path class="cls-1" d="M132.92,163.45h-9.31c0-.08,0-.22,0-.23s-.31-.07-.47-.12c-1.25-.34-2.53-.64-3.77-1a52.57,52.57,0,0,1-12.14-6.11A102.58,102.58,0,0,1,92.7,144.19l-.8-.76a.83.83,0,0,0-.21.12c-.38.35-.75.71-1.12,1.07A101.59,101.59,0,0,1,76.38,156a52.35,52.35,0,0,1-12.08,6.05c-1.29.43-2.62.72-3.93,1.08-.14,0-.5-.09-.35.31H50.71c0-.08,0-.22,0-.23l-.86-.25a17.1,17.1,0,0,1-4.67-2.11,19,19,0,0,1-6.87-8.12,34.76,34.76,0,0,1-3-12,68.12,68.12,0,0,1,.52-14.83A110.81,110.81,0,0,1,38.38,113a3.48,3.48,0,0,0,0-.47l-.35-.11a116.56,116.56,0,0,1-12.33-4.26,67.71,67.71,0,0,1-14.37-7.85A32.05,32.05,0,0,1,3,91.63,18.66,18.66,0,0,1,.05,83.06,17.84,17.84,0,0,1,2.4,72.86a28,28,0,0,1,6-7.27,55,55,0,0,1,12.81-8.23A106.59,106.59,0,0,1,37.7,51.18c.25-.07.5-.16.77-.25-.1-.43-.19-.8-.28-1.17a107.23,107.23,0,0,1-2.81-17A57.7,57.7,0,0,1,35.69,20a31.7,31.7,0,0,1,2.62-9.14C40.87,5.45,44.86,1.74,50.77.32a2.17,2.17,0,0,0,.35-.15L51,0H59.7c-.2.13-.09.23,0,.26.5.12,1,.21,1.51.33A43.32,43.32,0,0,1,72.77,5.32a87.65,87.65,0,0,1,15,11c1.38,1.23,2.73,2.5,4.14,3.8l1-.95A97.08,97.08,0,0,1,109.78,6,45.9,45.9,0,0,1,121.86.74c.66-.17,1.32-.29,2-.45.13,0,.4,0,.25-.29h8.5c-.2.15,0,.23.07.26.42.12.85.2,1.26.33a17.79,17.79,0,0,1,10.91,9.12A32.43,32.43,0,0,1,148.26,22a65.89,65.89,0,0,1-.18,13.54,104.27,104.27,0,0,1-2.22,12.77c-.21.87-.4,1.74-.61,2.65l.81.26a111.37,111.37,0,0,1,15,5.49,59.5,59.5,0,0,1,13.16,8,29.09,29.09,0,0,1,7.1,8.24,17.64,17.64,0,0,1,0,17.7,29,29,0,0,1-7,8.15A59.2,59.2,0,0,1,161,106.87a107.69,107.69,0,0,1-14.85,5.43l-.93.3.2.87a109.46,109.46,0,0,1,2.73,15.58,61.32,61.32,0,0,1-.21,14.83,30.11,30.11,0,0,1-3.15,10,17.86,17.86,0,0,1-10.15,8.85c-.51.17-1,.29-1.57.45C133,163.2,132.71,163.19,132.92,163.45ZM91.85,111.31c5.26,0,10.51-.2,15.75-.53a1.52,1.52,0,0,0,1.38-.66,231.93,231.93,0,0,0,16-27.77,1.2,1.2,0,0,0,0-1.2q-3.41-7-7.27-13.7-4.12-7.19-8.77-14.06a1,1,0,0,0-.87-.61c-3-.13-5.93-.35-8.89-.45A227.07,227.07,0,0,0,76,52.76a1.49,1.49,0,0,0-1.31.74A233.34,233.34,0,0,0,58.77,81.05a1.48,1.48,0,0,0,0,1.44c3,6.09,6.19,12.05,9.73,17.84,2,3.27,4.13,6.47,6.18,9.71a1.22,1.22,0,0,0,1.16.72,2.93,2.93,0,0,1,.41,0C81.45,111.11,86.65,111.34,91.85,111.31Zm51.2-6.46.43-.09a98.73,98.73,0,0,0,15.65-5.83,49.05,49.05,0,0,0,10.1-6.29,20.83,20.83,0,0,0,5.15-6,9.69,9.69,0,0,0,0-9.89,18.37,18.37,0,0,0-3.06-4,39,39,0,0,0-9-6.56,90.5,90.5,0,0,0-18.61-7.4c-.2-.06-.41-.09-.62-.14-.07.18-.12.3-.16.43A186.13,186.13,0,0,1,134.42,81a1.63,1.63,0,0,0,0,1.52,187.14,187.14,0,0,1,8.08,20.65C142.69,103.72,142.86,104.26,143.05,104.85ZM86.36,25.73a5.34,5.34,0,0,1-.68-.45c-1.07-1-2.11-2-3.19-2.94a79.93,79.93,0,0,0-13.72-10.1,35.37,35.37,0,0,0-9.79-4,14.71,14.71,0,0,0-6.23-.19A9.79,9.79,0,0,0,46,13.37a20.44,20.44,0,0,0-2,5.52A47.7,47.7,0,0,0,43.42,33a92.75,92.75,0,0,0,1.9,12.17c.28,1.27.59,2.53.9,3.83.25,0,.44-.05.62-.09,4.28-1,8.58-1.76,12.92-2.36,3.34-.46,6.7-.84,10.05-1.21a1.84,1.84,0,0,0,1.46-.83A186.4,186.4,0,0,1,85.85,26.34C86,26.2,86.1,26.05,86.36,25.73Zm-.16,112a1.45,1.45,0,0,0,0-.17l-2.12-2.37a188.33,188.33,0,0,1-12.88-16.26,1.4,1.4,0,0,0-1.12-.65c-2.59-.27-5.19-.58-7.78-.91-4.48-.56-8.93-1.33-13.36-2.26l-2.64-.55c-.06.17-.11.3-.14.42a95.05,95.05,0,0,0-2.89,18.11A43.83,43.83,0,0,0,44,144.63a18.41,18.41,0,0,0,2.83,6.9,9.39,9.39,0,0,0,6.15,4,14.86,14.86,0,0,0,5.6-.15,31.2,31.2,0,0,0,8.1-2.94,68.66,68.66,0,0,0,12.46-8.35C81.59,142.06,83.93,140,86.2,137.73ZM137.45,49c.07-.21.12-.33.15-.46a90.61,90.61,0,0,0,2.93-20.32,39.19,39.19,0,0,0-.91-9.65A18.1,18.1,0,0,0,136.9,12a9.6,9.6,0,0,0-7.83-4.19,18.45,18.45,0,0,0-5.72.76,40.5,40.5,0,0,0-10.48,4.87A91.61,91.61,0,0,0,97.72,25.6a1.7,1.7,0,0,0-.23.3c1.18,1.33,2.34,2.62,3.49,3.94,4.11,4.73,8,9.67,11.58,14.77a1.35,1.35,0,0,0,1,.66c2.44.24,4.88.46,7.31.82,4,.58,7.89,1.25,11.83,1.92C134.3,48.27,135.84,48.63,137.45,49Zm-40,88.74c1.54,1.4,3,2.77,4.47,4.08A76,76,0,0,0,116,151.88a31.34,31.34,0,0,0,10.16,3.65,13.2,13.2,0,0,0,5.2-.16,9.82,9.82,0,0,0,6.33-5.15,22.49,22.49,0,0,0,2.4-7.75,53.36,53.36,0,0,0,.13-12.63A94.83,94.83,0,0,0,138.3,118c-.25-1.13-.54-2.26-.81-3.43-.23,0-.39.05-.54.09-4.36,1-8.74,1.79-13.16,2.39-3.35.44-6.7.84-10.05,1.22a1.58,1.58,0,0,0-1.25.73,184,184,0,0,1-14.64,18.19Zm-56.75-79a.92.92,0,0,0-.27,0A101,101,0,0,0,26,63.93a50.86,50.86,0,0,0-11.56,7,20.78,20.78,0,0,0-5,5.75,9.75,9.75,0,0,0,0,10.1A19.92,19.92,0,0,0,13.7,92a43.59,43.59,0,0,0,8.78,5.91,94.37,94.37,0,0,0,17.69,6.88,3.46,3.46,0,0,0,.49.06c.08-.21.15-.38.2-.56a187.28,187.28,0,0,1,8.46-21.81,1.47,1.47,0,0,0,0-1.37,192.16,192.16,0,0,1-7.37-18.48C41.51,61.31,41.09,60,40.67,58.71ZM81.16,44.47c7.2-.32,14.2-.29,21.38,0-3.44-4.53-6.93-8.76-10.69-12.84C88.08,35.72,84.59,39.94,81.16,44.47ZM48.42,56.7C50.11,62,52,67.18,54.21,72.37,57.49,66,61,60,64.73,54.07c0,0,0,0,0-.08l-.09-.1C59.23,54.57,53.83,55.47,48.42,56.7Zm86.85,50.09c-1.66-5.28-3.56-10.41-5.77-15.63-3.33,6.4-6.84,12.48-10.65,18.47A144,144,0,0,0,135.27,106.79Zm-70.38,2.88C61,103.6,57.51,97.52,54.2,91.15c-2.18,5.21-4.13,10.37-5.77,15.69C53.88,108.06,59.28,109,64.89,109.67ZM129.54,72.3c2.17-5.17,4.1-10.31,5.72-15.56C132.69,55.9,120.19,53.82,119,54c1.79,3,3.62,5.94,5.36,8.95S127.75,69.09,129.54,72.3ZM91.85,131.91c3.78-4.1,7.26-8.31,10.69-12.84-7.21.31-14.21.32-21.38,0C84.58,123.58,88.07,127.8,91.85,131.91Z"/><path class="cls-2" d="M91.88,98.12a16.37,16.37,0,1,1,16.35-16.38A16.32,16.32,0,0,1,91.88,98.12Z"/></svg>